<svg width="128" height="18" viewBox="0 0 128 18" fill="none" xmlns="http://www.w3.org/2000/svg">
<path d="M74.1974 7C74.1179 6.71023 74.0014 6.43892 73.848 6.18608C73.6946 5.9304 73.5043 5.70739 73.277 5.51705C73.0526 5.32386 72.7926 5.1733 72.4972 5.06534C72.2045 4.95739 71.8778 4.90341 71.517 4.90341C70.9489 4.90341 70.4403 5.05114 69.9915 5.34659C69.5426 5.64205 69.1875 6.06818 68.9261 6.625C68.6676 7.18182 68.5384 7.85227 68.5384 8.63636C68.5384 9.41761 68.669 10.0866 68.9304 10.6435C69.1918 11.2003 69.5497 11.6278 70.0043 11.9261C70.4616 12.2216 70.9844 12.3693 71.5724 12.3693C72.1094 12.3693 72.5838 12.25 72.9957 12.0114C73.4077 11.7727 73.7287 11.4318 73.9588 10.9886C74.1918 10.5455 74.3054 10.0185 74.2997 9.40767L74.5554 9.48864H71.7599V8.77273H75.0753V9.48864C75.0753 10.233 74.9247 10.8764 74.6236 11.419C74.3224 11.9616 73.9091 12.3807 73.3835 12.6761C72.858 12.9716 72.2543 13.1193 71.5724 13.1193C70.8111 13.1193 70.1449 12.9361 69.5739 12.5696C69.0028 12.2003 68.5582 11.6804 68.2401 11.0099C67.9247 10.3366 67.767 9.54545 67.767 8.63636C67.767 7.9517 67.858 7.33381 68.0398 6.78267C68.2216 6.23153 68.4787 5.75994 68.8111 5.3679C69.1463 4.97585 69.5426 4.67614 70 4.46875C70.4574 4.25852 70.9631 4.15341 71.517 4.15341C71.9943 4.15341 72.4304 4.22869 72.8253 4.37926C73.223 4.52983 73.5724 4.73722 73.8736 5.00142C74.1776 5.26278 74.4261 5.56534 74.6193 5.90909C74.8153 6.25 74.9474 6.61364 75.0156 7H74.1974ZM79.5423 13.1364C78.9315 13.1364 78.4031 12.9943 77.957 12.7102C77.511 12.4233 77.1658 12.027 76.9215 11.5213C76.68 11.0128 76.5593 10.4276 76.5593 9.76562C76.5593 9.10653 76.68 8.52131 76.9215 8.00994C77.1658 7.49574 77.5025 7.09375 77.9315 6.80398C78.3633 6.51136 78.8619 6.36506 79.4272 6.36506C79.7823 6.36506 80.1246 6.4304 80.4542 6.56108C80.7837 6.68892 81.0792 6.88636 81.3406 7.15341C81.6048 7.41761 81.8136 7.75142 81.967 8.15483C82.1204 8.5554 82.1971 9.02983 82.1971 9.57812V9.95312H77.0835V9.28409H81.4215C81.4215 8.86364 81.3363 8.4858 81.1658 8.15057C80.9982 7.8125 80.7638 7.54545 80.4627 7.34943C80.1644 7.15341 79.8192 7.0554 79.4272 7.0554C79.0124 7.0554 78.6474 7.16619 78.332 7.38778C78.0167 7.60937 77.7695 7.90199 77.5906 8.26562C77.4144 8.62926 77.3249 9.02699 77.3221 9.45881V9.85938C77.3221 10.3793 77.4116 10.8338 77.5906 11.223C77.7724 11.6094 78.0295 11.9091 78.3619 12.1222C78.6942 12.3352 79.0877 12.4418 79.5423 12.4418C79.8519 12.4418 80.1232 12.3935 80.3562 12.2969C80.592 12.2003 80.7894 12.071 80.9485 11.9091C81.1104 11.7443 81.2326 11.5639 81.315 11.3679L82.0352 11.6023C81.9357 11.8778 81.7724 12.1321 81.5451 12.3651C81.3207 12.598 81.0394 12.7855 80.7013 12.9276C80.3661 13.0668 79.9798 13.1364 79.5423 13.1364ZM86.4126 13.1364C85.8473 13.1364 85.3473 12.9929 84.9126 12.706C84.4808 12.419 84.1428 12.0227 83.8984 11.517C83.6541 11.0085 83.532 10.4219 83.532 9.7571C83.532 9.08665 83.6541 8.49716 83.8984 7.98864C84.1428 7.47727 84.4808 7.07955 84.9126 6.79545C85.3473 6.50852 85.8473 6.36506 86.4126 6.36506C86.978 6.36506 87.4766 6.50852 87.9084 6.79545C88.3402 7.08239 88.6783 7.48011 88.9226 7.98864C89.1697 8.49716 89.2933 9.08665 89.2933 9.7571C89.2933 10.4219 89.1712 11.0085 88.9268 11.517C88.6825 12.0227 88.343 12.419 87.9084 12.706C87.4766 12.9929 86.978 13.1364 86.4126 13.1364ZM86.4126 12.4418C86.8672 12.4418 87.2521 12.3196 87.5675 12.0753C87.8828 11.831 88.1214 11.5057 88.2834 11.0994C88.4482 10.6932 88.5305 10.2457 88.5305 9.7571C88.5305 9.26847 88.4482 8.8196 88.2834 8.41051C88.1214 8.00142 87.8828 7.6733 87.5675 7.42614C87.2521 7.17898 86.8672 7.0554 86.4126 7.0554C85.9609 7.0554 85.576 7.17898 85.2578 7.42614C84.9425 7.6733 84.7024 8.00142 84.5376 8.41051C84.3757 8.8196 84.2947 9.26847 84.2947 9.7571C84.2947 10.2457 84.3757 10.6932 84.5376 11.0994C84.7024 11.5057 84.9425 11.831 85.2578 12.0753C85.5732 12.3196 85.9581 12.4418 86.4126 12.4418ZM95.3562 7.89062L94.6616 8.08665C94.5934 7.89062 94.4968 7.71307 94.3718 7.55398C94.2468 7.39489 94.0835 7.26847 93.8817 7.17472C93.6829 7.08097 93.4357 7.03409 93.1403 7.03409C92.6971 7.03409 92.3335 7.1392 92.0494 7.34943C91.7653 7.55966 91.6232 7.83097 91.6232 8.16335C91.6232 8.4446 91.7198 8.6733 91.913 8.84943C92.109 9.02273 92.4102 9.16051 92.8164 9.26278L93.805 9.50568C94.3533 9.6392 94.7638 9.85085 95.0366 10.1406C95.3121 10.4304 95.4499 10.794 95.4499 11.2315C95.4499 11.6009 95.3477 11.929 95.1431 12.2159C94.9386 12.5028 94.6531 12.7287 94.2866 12.8935C93.9229 13.0554 93.5011 13.1364 93.021 13.1364C92.3817 13.1364 91.8548 12.9929 91.44 12.706C91.0252 12.4162 90.7596 11.9986 90.6431 11.4531L91.3718 11.2741C91.4656 11.6634 91.6488 11.9574 91.9215 12.1562C92.1971 12.3551 92.5593 12.4545 93.0082 12.4545C93.511 12.4545 93.913 12.3423 94.2141 12.1179C94.5153 11.8906 94.6658 11.6065 94.6658 11.2656C94.6658 11.0014 94.5778 10.7798 94.4016 10.6009C94.2255 10.419 93.9585 10.2855 93.6005 10.2003L92.5309 9.9446C91.9627 9.80824 91.5423 9.59233 91.2695 9.29688C90.9968 9.00142 90.8604 8.63494 90.8604 8.19744C90.8604 7.83665 90.9585 7.51989 91.1545 7.24716C91.3505 6.97159 91.6204 6.75568 91.9641 6.59943C92.3079 6.44318 92.6999 6.36506 93.1403 6.36506C93.7397 6.36506 94.2184 6.50142 94.5763 6.77415C94.9371 7.04403 95.1971 7.41619 95.3562 7.89062ZM99.7571 13.1364C99.1463 13.1364 98.6179 12.9943 98.1719 12.7102C97.7259 12.4233 97.3807 12.027 97.1364 11.5213C96.8949 11.0128 96.7741 10.4276 96.7741 9.76562C96.7741 9.10653 96.8949 8.52131 97.1364 8.00994C97.3807 7.49574 97.7173 7.09375 98.1463 6.80398C98.5781 6.51136 99.0767 6.36506 99.642 6.36506C99.9972 6.36506 100.339 6.4304 100.669 6.56108C100.999 6.68892 101.294 6.88636 101.555 7.15341C101.82 7.41761 102.028 7.75142 102.182 8.15483C102.335 8.5554 102.412 9.02983 102.412 9.57812V9.95312H97.2983V9.28409H101.636C101.636 8.86364 101.551 8.4858 101.381 8.15057C101.213 7.8125 100.979 7.54545 100.678 7.34943C100.379 7.15341 100.034 7.0554 99.642 7.0554C99.2273 7.0554 98.8622 7.16619 98.5469 7.38778C98.2315 7.60937 97.9844 7.90199 97.8054 8.26562C97.6293 8.62926 97.5398 9.02699 97.5369 9.45881V9.85938C97.5369 10.3793 97.6264 10.8338 97.8054 11.223C97.9872 11.6094 98.2443 11.9091 98.5767 12.1222C98.9091 12.3352 99.3026 12.4418 99.7571 12.4418C100.067 12.4418 100.338 12.3935 100.571 12.2969C100.807 12.2003 101.004 12.071 101.163 11.9091C101.325 11.7443 101.447 11.5639 101.53 11.3679L102.25 11.6023C102.151 11.8778 101.987 12.1321 101.76 12.3651C101.536 12.598 101.254 12.7855 100.916 12.9276C100.581 13.0668 100.195 13.1364 99.7571 13.1364ZM105.912 13.1491C105.517 13.1491 105.156 13.0724 104.829 12.919C104.502 12.7628 104.243 12.5384 104.049 12.2457C103.856 11.9503 103.76 11.5923 103.76 11.1719C103.76 10.848 103.821 10.5753 103.943 10.3537C104.065 10.1321 104.238 9.95028 104.463 9.80824C104.687 9.66619 104.953 9.55398 105.26 9.47159C105.566 9.3892 105.904 9.32528 106.274 9.27983C106.64 9.23437 106.95 9.1946 107.203 9.16051C107.458 9.12642 107.653 9.07244 107.787 8.99858C107.92 8.92472 107.987 8.8054 107.987 8.64062V8.48722C107.987 8.04119 107.853 7.69034 107.586 7.43466C107.322 7.17614 106.941 7.04688 106.444 7.04688C105.973 7.04688 105.588 7.15057 105.289 7.35795C104.994 7.56534 104.787 7.80966 104.667 8.09091L103.947 7.83097C104.095 7.47301 104.299 7.1875 104.561 6.97443C104.822 6.75852 105.115 6.60369 105.439 6.50994C105.762 6.41335 106.091 6.36506 106.423 6.36506C106.673 6.36506 106.933 6.39773 107.203 6.46307C107.475 6.52841 107.728 6.64205 107.961 6.80398C108.194 6.96307 108.383 7.18608 108.528 7.47301C108.673 7.7571 108.745 8.1179 108.745 8.5554V13H107.987V11.9645H107.94C107.849 12.1577 107.714 12.3452 107.535 12.527C107.356 12.7088 107.132 12.858 106.862 12.9744C106.592 13.0909 106.275 13.1491 105.912 13.1491ZM106.014 12.4545C106.417 12.4545 106.767 12.3651 107.062 12.1861C107.358 12.0071 107.585 11.7699 107.744 11.4744C107.906 11.1761 107.987 10.848 107.987 10.4901V9.54403C107.93 9.59801 107.835 9.64631 107.701 9.68892C107.571 9.73153 107.419 9.76989 107.245 9.80398C107.075 9.83523 106.904 9.86222 106.734 9.88494C106.564 9.90767 106.41 9.92756 106.274 9.9446C105.904 9.99006 105.589 10.0611 105.328 10.1577C105.066 10.2543 104.866 10.3878 104.727 10.5582C104.588 10.7259 104.518 10.9418 104.518 11.206C104.518 11.6037 104.66 11.9119 104.944 12.1307C105.228 12.3466 105.585 12.4545 106.014 12.4545ZM110.763 13V6.45455H111.5V7.46023H111.556C111.686 7.13068 111.914 6.86506 112.238 6.66335C112.564 6.45881 112.934 6.35653 113.346 6.35653C113.408 6.35653 113.478 6.35795 113.554 6.3608C113.631 6.36364 113.695 6.36648 113.746 6.36932V7.14062C113.712 7.13494 113.652 7.12642 113.567 7.11506C113.482 7.10369 113.39 7.09801 113.29 7.09801C112.949 7.09801 112.645 7.17045 112.378 7.31534C112.114 7.45739 111.905 7.65483 111.752 7.90767C111.598 8.16051 111.522 8.44886 111.522 8.77273V13H110.763ZM117.398 13.1364C116.813 13.1364 116.303 12.9901 115.868 12.6974C115.436 12.4048 115.101 12.0043 114.863 11.4957C114.624 10.9872 114.505 10.4077 114.505 9.7571C114.505 9.10085 114.625 8.51705 114.867 8.00568C115.111 7.49432 115.449 7.09375 115.881 6.80398C116.313 6.51136 116.814 6.36506 117.385 6.36506C117.823 6.36506 118.219 6.45028 118.574 6.62074C118.929 6.78835 119.222 7.02557 119.452 7.33239C119.685 7.63636 119.831 7.99148 119.891 8.39773H119.124C119.044 8.02841 118.853 7.71307 118.549 7.4517C118.248 7.1875 117.864 7.0554 117.398 7.0554C116.98 7.0554 116.611 7.16903 116.29 7.39631C115.969 7.62074 115.718 7.93466 115.536 8.33807C115.357 8.73864 115.267 9.20312 115.267 9.73153C115.267 10.2628 115.355 10.733 115.532 11.142C115.708 11.5483 115.955 11.8665 116.273 12.0966C116.594 12.3267 116.969 12.4418 117.398 12.4418C117.688 12.4418 117.952 12.3878 118.191 12.2798C118.432 12.169 118.634 12.0128 118.796 11.8111C118.961 11.6094 119.071 11.3693 119.128 11.0909H119.895C119.838 11.4858 119.698 11.8381 119.473 12.1477C119.252 12.4545 118.963 12.696 118.608 12.8722C118.256 13.0483 117.853 13.1364 117.398 13.1364ZM122.279 8.90909V13H121.521V4.27273H122.279V7.48153H122.348C122.501 7.14347 122.738 6.87358 123.059 6.67188C123.383 6.47017 123.792 6.36932 124.287 6.36932C124.73 6.36932 125.119 6.46023 125.454 6.64205C125.789 6.82386 126.051 7.09233 126.238 7.44744C126.426 7.80256 126.52 8.24006 126.52 8.75994V13H125.757V8.80682C125.757 8.26705 125.606 7.84233 125.305 7.53267C125.007 7.22017 124.603 7.06392 124.095 7.06392C123.745 7.06392 123.434 7.13778 123.162 7.28551C122.889 7.43324 122.673 7.64631 122.514 7.92472C122.358 8.20028 122.279 8.52841 122.279 8.90909Z" fill="#ABABAB"/>
<g clip-path="url(#clip0_1013_4565)">
<path d="M59.0706 13.4293C60.2207 13.4293 61.2923 12.9589 61.4622 12.227C61.5145 12.6975 61.7759 13.0503 62.1549 13.2333C62.4947 13.4032 62.9129 13.4293 63.318 13.2725V12.0963C63.1481 12.1355 62.9652 12.1486 62.8214 12.031C62.6776 11.9134 62.5731 11.652 62.5731 11.1684V8.85524C62.5731 7.43074 61.5014 6.54205 59.6326 6.54205C58.0121 6.54205 56.7836 7.20856 56.6268 8.21487L57.8814 8.58079C57.9859 8.07111 58.6002 7.71825 59.5542 7.71825C60.469 7.71825 61.1878 8.01883 61.1878 8.51545C61.1878 8.98593 60.5343 9.2081 58.9138 9.32572C57.3717 9.44334 56.4307 10.1883 56.4307 11.3906C56.4307 12.5799 57.3586 13.4293 59.0706 13.4293ZM59.0706 12.2662C58.2996 12.2662 57.8291 11.9395 57.8291 11.4037C57.8291 10.894 58.2734 10.5411 58.9922 10.4888C60.2076 10.4104 60.9525 10.2667 61.2009 9.97916C61.2009 11.3645 60.3122 12.2662 59.0706 12.2662Z" fill="#EFEDF0"/>
<path d="M52.4753 6.58563C51.4617 6.58563 50.5457 7.06355 50.0939 7.79881C49.7397 7.02679 48.9337 6.59789 48.0667 6.58563C47.1996 6.58563 46.4669 7.02679 46.0761 7.72529V6.76945H44.7571V13.2595H46.1005V9.71049C46.1005 8.58309 46.7844 7.84783 47.7613 7.84783C48.6895 7.84783 49.2757 8.53407 49.2757 9.67373V13.2595H50.619V9.68598C50.619 8.57084 51.2907 7.84783 52.2677 7.84783C53.1836 7.84783 53.7698 8.48506 53.7698 9.64922V13.2595H55.1131V9.42864C55.1131 8.55858 54.8689 7.86008 54.3804 7.35766C53.9041 6.84297 53.2691 6.58563 52.4753 6.58563Z" fill="#EFEDF0"/>
<path d="M22.2045 13.4293C24.2956 13.4293 25.707 12.0179 25.707 9.93995C25.707 7.87508 24.3217 6.55512 22.2045 6.55512C20.0874 6.55512 18.689 7.88814 18.689 9.93995C18.689 12.0179 20.1266 13.4293 22.2045 13.4293ZM22.2045 12.1747C20.9499 12.1747 20.0874 11.2468 20.0874 9.93995C20.0874 8.64614 20.9238 7.80973 22.2045 7.80973C23.4984 7.80973 24.3086 8.64614 24.3086 9.93995C24.3086 11.2599 23.4592 12.1747 22.2045 12.1747Z" fill="#EFEDF0"/>
<path d="M31.8861 6.54205C30.8014 6.54205 29.8735 6.98639 29.2985 7.73132V6.63353H27.312V7.77053H29.2723C28.8803 8.29328 28.6581 8.95979 28.6581 9.73085V12.1225H27.3512V13.2594H31.7685V12.1225H30.0695V9.69165C30.0695 8.64614 30.8667 7.86201 31.8861 7.86201C32.7095 7.86201 33.2453 8.39783 33.4021 9.06434L34.6829 8.60693C34.4084 7.36539 33.3629 6.54205 31.8861 6.54205Z" fill="#EFEDF0"/>
<path d="M38.8289 13.4293C39.979 13.4293 41.0507 12.9589 41.2205 12.227C41.2728 12.6975 41.5342 13.0503 41.9132 13.2333C42.253 13.4032 42.6712 13.4293 43.0763 13.2725V12.0963C42.9064 12.1355 42.7235 12.1486 42.5797 12.031C42.436 11.9134 42.3314 11.652 42.3314 11.1684V8.85524C42.3314 7.43074 41.2598 6.54205 39.3909 6.54205C37.7704 6.54205 36.5419 7.20856 36.3851 8.21487L37.6397 8.58079C37.7442 8.07111 38.3585 7.71825 39.3125 7.71825C40.2273 7.71825 40.9461 8.01883 40.9461 8.51545C40.9461 8.98593 40.2927 9.2081 38.6721 9.32572C37.13 9.44334 36.189 10.1883 36.189 11.3906C36.189 12.5799 37.1169 13.4293 38.8289 13.4293ZM38.8289 12.2662C38.0579 12.2662 37.5874 11.9395 37.5874 11.4037C37.5874 10.894 38.0317 10.5411 38.7505 10.4888C39.9659 10.4104 40.7109 10.2667 40.9592 9.97916C40.9592 11.3645 40.0705 12.2662 38.8289 12.2662Z" fill="#EFEDF0"/>
<g clip-path="url(#clip1_1013_4565)">
<path d="M13.8597 5.11393C13.7426 4.95606 13.6195 4.80292 13.4907 4.65485L13.4976 4.84325L13.6275 5.1226L13.8597 5.11393Z" fill="#FB81B8"/>
<path fill-rule="evenodd" clip-rule="evenodd" d="M7.8867 6.15754C8.45672 5.65131 9.24504 5.39536 10.0069 5.43052C10.4421 5.45062 10.8325 5.56225 11.1539 5.74725C11.4314 5.89619 11.7099 6.16929 11.9392 6.48878C12.3436 6.84189 12.9515 6.88541 13.4076 6.55994C13.9408 6.17944 14.0646 5.43872 13.6841 4.9055C12.8218 3.69696 11.4527 3.12255 10.1163 3.06086C8.78144 2.99924 7.3679 3.43841 6.29733 4.39652C6.29375 4.39973 6.29018 4.40296 6.28664 4.40621C4.16688 6.31152 3.98628 9.57645 5.88933 11.703C6.32615 12.1912 7.07597 12.2327 7.56408 11.7959C8.0522 11.3591 8.09378 10.6092 7.65695 10.1211C6.62556 8.96855 6.72465 7.19679 7.87781 6.16557C7.88079 6.16291 7.88376 6.16023 7.8867 6.15754Z" fill="url(#paint0_linear_1013_4565)"/>
<mask id="mask0_1013_4565" style="mask-type:alpha" maskUnits="userSpaceOnUse" x="4" y="3" width="10" height="10">
<path fill-rule="evenodd" clip-rule="evenodd" d="M7.88704 6.15726C8.45703 5.65121 9.24519 5.39536 10.0069 5.43052C10.4421 5.45061 10.8324 5.5622 11.1537 5.74713C11.4313 5.89605 11.7099 6.16922 11.9393 6.48882C12.3437 6.8419 12.9516 6.8854 13.4076 6.55994C13.9408 6.17944 14.0646 5.43872 13.6842 4.9055C12.8218 3.69696 11.4527 3.12255 10.1163 3.06086C8.78145 2.99924 7.36791 3.43841 6.29734 4.39652C6.2936 4.39987 6.28989 4.40323 6.2862 4.40662C4.16685 6.31198 3.98641 9.57662 5.88933 11.703C6.32615 12.1912 7.07597 12.2328 7.56408 11.7959C8.0522 11.3591 8.09378 10.6092 7.65695 10.1211C6.62556 8.96857 6.72465 7.19681 7.87781 6.16559C7.8809 6.16282 7.88398 6.16005 7.88704 6.15726Z" fill="url(#paint1_linear_1013_4565)"/>
</mask>
<g mask="url(#mask0_1013_4565)">
<g style="mix-blend-mode:multiply">
<path d="M6.36657 3.42365L2.33728 7.36382L9.70032 8.50841L12.6635 6.18189V4.62133L6.36657 3.42365Z" fill="url(#paint2_linear_1013_4565)"/>
</g>
</g>
<path fill-rule="evenodd" clip-rule="evenodd" d="M4.2733 4.28306C4.70993 4.77137 4.66805 5.52119 4.17976 5.95784C1.9477 7.95384 1.75646 11.3807 3.75251 13.613C4.18914 14.1013 4.14727 14.8511 3.65898 15.2878C3.17069 15.7244 2.42089 15.6826 1.98426 15.1943C-0.884928 11.9855 -0.610201 7.05894 2.59858 4.18952C3.08687 3.75287 3.83666 3.79475 4.2733 4.28306Z" fill="url(#paint3_linear_1013_4565)"/>
<path fill-rule="evenodd" clip-rule="evenodd" d="M2.07778 13.5195C2.56607 13.0829 3.31587 13.1248 3.7525 13.6131C5.74842 15.8452 9.17519 16.0365 11.4074 14.0403C11.8957 13.6037 12.6455 13.6456 13.0821 14.1339C13.5187 14.6222 13.4769 15.372 12.9886 15.8087C9.77993 18.678 4.85356 18.4032 1.98425 15.1943C1.54762 14.706 1.58949 13.9562 2.07778 13.5195Z" fill="url(#paint4_linear_1013_4565)"/>
<path fill-rule="evenodd" clip-rule="evenodd" d="M12.7727 5.54678C13.3386 5.21694 14.0648 5.40835 14.3946 5.97431C16.1935 9.06114 15.8356 13.2628 12.9898 15.8084C12.5015 16.2451 11.7517 16.2033 11.315 15.7151C10.8783 15.2268 10.9201 14.477 11.4084 14.0403C13.3227 12.328 13.6412 9.39279 12.3451 7.16877C12.0153 6.60281 12.2067 5.87662 12.7727 5.54678Z" fill="url(#paint5_linear_1013_4565)"/>
<mask id="mask1_1013_4565" style="mask-type:alpha" maskUnits="userSpaceOnUse" x="11" y="5" width="5" height="12">
<path fill-rule="evenodd" clip-rule="evenodd" d="M12.7727 5.54678C13.3386 5.21694 14.0648 5.40835 14.3946 5.97431C16.1935 9.06114 15.8356 13.2628 12.9898 15.8084C12.5015 16.2451 11.7517 16.2033 11.315 15.7151C10.8783 15.2268 10.9201 14.477 11.4084 14.0403C13.3227 12.328 13.6412 9.39279 12.3451 7.16877C12.0153 6.60281 12.2067 5.87662 12.7727 5.54678Z" fill="url(#paint6_linear_1013_4565)"/>
</mask>
<g mask="url(#mask1_1013_4565)">
<g style="mix-blend-mode:multiply">
<path d="M12.3006 10.4149L8.33331 14.5526L14.1487 16.2075L16.6421 10.2091L13.3567 3.0639L13.0633 9.03294L12.3006 10.4149Z" fill="url(#paint7_linear_1013_4565)"/>
</g>
</g>
<path fill-rule="evenodd" clip-rule="evenodd" d="M13.0111 4.16718L13.3579 4.55093L13.7056 4.93469C13.697 4.9218 13.6879 4.90848 13.6782 4.89477L13.7102 4.92912C13.6958 4.91011 13.6693 4.87694 13.634 4.83432C13.4753 4.62375 13.2225 4.34959 13.0111 4.16718Z" fill="#F97CBF"/>
<path fill-rule="evenodd" clip-rule="evenodd" d="M5.9836 10.028C6.47188 9.59131 7.22168 9.63319 7.65831 10.1215C8.6895 11.2747 10.4612 11.3738 11.6137 10.3424C12.1018 9.90551 12.8516 9.9471 13.2884 10.4352C13.7253 10.9234 13.6837 11.6732 13.1956 12.11C11.0657 14.0161 7.79403 13.832 5.89008 11.7027C5.45344 11.2144 5.49531 10.4646 5.9836 10.028Z" fill="url(#paint8_linear_1013_4565)"/>
<path fill-rule="evenodd" clip-rule="evenodd" d="M13.6026 4.80346C13.1657 4.31532 12.4159 4.27374 11.9278 4.71058C11.5051 5.08885 11.4173 5.70181 11.685 6.17632C11.8323 6.33545 11.9693 6.51861 12.0864 6.71124C12.8399 7.8514 12.6633 9.40267 11.6141 10.3409C11.1258 10.7776 11.0839 11.5274 11.5206 12.0157C11.9572 12.504 12.707 12.5459 13.1953 12.1092C15.3245 10.2052 15.5086 6.93337 13.6026 4.80346Z" fill="url(#paint9_linear_1013_4565)"/>
<path fill-rule="evenodd" clip-rule="evenodd" d="M11.5858 6.07439C9.91256 4.11786 6.40109 3.9727 4.17984 5.95903C3.69155 6.39568 2.94175 6.3538 2.50512 5.86549C2.06849 5.37718 2.11037 4.62736 2.59866 4.19071C5.73656 1.38467 11.0988 1.3846 13.6749 4.89376C14.0626 5.42181 13.9488 6.16413 13.4207 6.55178C12.9654 6.88609 12.3507 6.84746 11.9415 6.49183C11.8323 6.33939 11.7119 6.19744 11.5858 6.07439Z" fill="url(#paint10_linear_1013_4565)"/>
</g>
</g>
<defs>
<linearGradient id="paint0_linear_1013_4565" x1="6.43962" y1="10.0167" x2="7.23913" y2="4.87724" gradientUnits="userSpaceOnUse">
<stop stop-color="#F6D25B"/>
<stop offset="1" stop-color="#F8B580"/>
</linearGradient>
<linearGradient id="paint1_linear_1013_4565" x1="6.43962" y1="10.0168" x2="7.23913" y2="4.87724" gradientUnits="userSpaceOnUse">
<stop stop-color="#F6D25B"/>
<stop offset="1" stop-color="#F8B580"/>
</linearGradient>
<linearGradient id="paint2_linear_1013_4565" x1="10.0227" y1="2.45443" x2="5.41802" y2="7.76994" gradientUnits="userSpaceOnUse">
<stop stop-color="#895200"/>
<stop offset="0.833333" stop-color="#E28800" stop-opacity="0"/>
</linearGradient>
<linearGradient id="paint3_linear_1013_4565" x1="2.28762" y1="5.07368" x2="2.85762" y2="13.4149" gradientUnits="userSpaceOnUse">
<stop stop-color="#ED51F2"/>
<stop offset="1" stop-color="#B771F2"/>
</linearGradient>
<linearGradient id="paint4_linear_1013_4565" x1="2.27101" y1="13.9" x2="11.1154" y2="14.4326" gradientUnits="userSpaceOnUse">
<stop stop-color="#B971F3"/>
<stop offset="1" stop-color="#8F6FDE"/>
</linearGradient>
<linearGradient id="paint5_linear_1013_4565" x1="13.2921" y1="7.26705" x2="11.9221" y2="15.3735" gradientUnits="userSpaceOnUse">
<stop stop-color="#6A4BB2"/>
<stop offset="1" stop-color="#9170E0"/>
</linearGradient>
<linearGradient id="paint6_linear_1013_4565" x1="13.2921" y1="6.53326" x2="11.693" y2="15.2704" gradientUnits="userSpaceOnUse">
<stop stop-color="#6A4BB2"/>
<stop offset="1" stop-color="#9170E0"/>
</linearGradient>
<linearGradient id="paint7_linear_1013_4565" x1="11.3326" y1="9.88565" x2="13.394" y2="14.2337" gradientUnits="userSpaceOnUse">
<stop stop-color="#542DA7"/>
<stop offset="0.833333" stop-color="#5F2EAF" stop-opacity="0"/>
</linearGradient>
<linearGradient id="paint8_linear_1013_4565" x1="7.06774" y1="10.0738" x2="11.1221" y2="11.2159" gradientUnits="userSpaceOnUse">
<stop stop-color="#F6D25B"/>
<stop offset="1" stop-color="#F9A38F"/>
</linearGradient>
<linearGradient id="paint9_linear_1013_4565" x1="12.899" y1="6.90738" x2="13.0694" y2="11.2251" gradientUnits="userSpaceOnUse">
<stop stop-color="#FA80B7"/>
<stop offset="1" stop-color="#F8A48D"/>
</linearGradient>
<linearGradient id="paint10_linear_1013_4565" x1="3.69863" y1="4.76302" x2="12.4355" y2="5.21984" gradientUnits="userSpaceOnUse">
<stop stop-color="#E755F3"/>
<stop offset="1" stop-color="#F97FB6"/>
</linearGradient>
<clipPath id="clip0_1013_4565">
<rect width="63.3333" height="15.6263" fill="white" transform="translate(0 2.16669)"/>
</clipPath>
<clipPath id="clip1_1013_4565">
<rect width="15.5007" height="15.6263" fill="white" transform="translate(0 2.16669)"/>
</clipPath>
</defs>
</svg>
