<svg width="16" height="16" viewBox="0 0 16 16" fill="none" xmlns="http://www.w3.org/2000/svg">
<g id="icona-orama">
<path id="Ellipse 46" d="M13.8597 3.11393C13.7426 2.95606 13.6195 2.80292 13.4907 2.65485L13.4976 2.84325L13.6275 3.1226L13.8597 3.11393Z" fill="#FB81B8"/>
<path id="Union" fill-rule="evenodd" clip-rule="evenodd" d="M7.88671 4.15754C8.45673 3.65131 9.24504 3.39536 10.0069 3.43052C10.4422 3.45062 10.8327 3.56229 11.1541 3.74734C11.4315 3.89631 11.7099 4.16935 11.9392 4.48877C12.3436 4.84189 12.9515 4.88541 13.4076 4.55994C13.9408 4.17944 14.0646 3.43872 13.6841 2.9055C12.8218 1.69696 11.4527 1.12255 10.1163 1.06086C8.78144 0.999238 7.3679 1.43841 6.29733 2.39652C6.29374 2.39974 6.29017 2.40297 6.28663 2.40622C4.16688 4.31153 3.98629 7.57646 5.88933 9.70303C6.32615 10.1912 7.07597 10.2327 7.56408 9.79591C8.0522 9.35907 8.09378 8.60922 7.65695 8.12109C6.62556 6.96855 6.72465 5.19679 7.87781 4.16557C7.88079 4.16291 7.88376 4.16023 7.88671 4.15754Z" fill="url(#paint0_linear_1018_120)"/>
<g id="Mask group">
<mask id="mask0_1018_120" style="mask-type:alpha" maskUnits="userSpaceOnUse" x="4" y="1" width="10" height="10">
<path id="Union_2" fill-rule="evenodd" clip-rule="evenodd" d="M7.88706 4.15723C8.45705 3.65121 9.2452 3.39536 10.0069 3.43052C10.4419 3.45061 10.8322 3.56214 11.1535 3.74698C11.4311 3.89588 11.7098 4.16913 11.9393 4.48883C12.3437 4.8419 12.9516 4.88539 13.4076 4.55994C13.9408 4.17944 14.0646 3.43872 13.6842 2.9055C12.8218 1.69696 11.4527 1.12255 10.1163 1.06086C8.78145 0.999238 7.36791 1.43841 6.29734 2.39652C6.29359 2.39988 6.28987 2.40325 6.28617 2.40665C4.16685 4.31202 3.98642 7.57663 5.88933 9.70305C6.32615 10.1912 7.07597 10.2328 7.56408 9.79592C8.0522 9.35908 8.09378 8.60924 7.65695 8.12111C6.62556 6.96857 6.72465 5.19681 7.87781 4.16559C7.88091 4.16282 7.884 4.16003 7.88706 4.15723Z" fill="url(#paint1_linear_1018_120)"/>
</mask>
<g mask="url(#mask0_1018_120)">
<g id="Vector 81" style="mix-blend-mode:multiply">
<path d="M6.36657 1.42365L2.33728 5.36382L9.70032 6.50841L12.6635 4.18189V2.62133L6.36657 1.42365Z" fill="url(#paint2_linear_1018_120)"/>
</g>
</g>
</g>
<path id="Vector (Stroke)" fill-rule="evenodd" clip-rule="evenodd" d="M4.2733 2.28306C4.70993 2.77137 4.66805 3.52119 4.17976 3.95784C1.9477 5.95384 1.75646 9.38073 3.75251 11.613C4.18914 12.1013 4.14727 12.8511 3.65898 13.2878C3.17069 13.7244 2.42089 13.6826 1.98426 13.1943C-0.884928 9.9855 -0.6102 5.05894 2.59858 2.18952C3.08687 1.75287 3.83666 1.79475 4.2733 2.28306Z" fill="url(#paint3_linear_1018_120)"/>
<path id="Vector (Stroke)_2" fill-rule="evenodd" clip-rule="evenodd" d="M2.07778 11.5195C2.56607 11.0829 3.31587 11.1248 3.7525 11.6131C5.74842 13.8452 9.17519 14.0365 11.4074 12.0403C11.8957 11.6037 12.6455 11.6456 13.0821 12.1339C13.5187 12.6222 13.4769 13.372 12.9886 13.8087C9.77993 16.678 4.85356 16.4032 1.98425 13.1943C1.54762 12.706 1.58949 11.9562 2.07778 11.5195Z" fill="url(#paint4_linear_1018_120)"/>
<path id="Union_3" fill-rule="evenodd" clip-rule="evenodd" d="M12.7727 3.54678C13.3386 3.21694 14.0648 3.40835 14.3946 3.97431C16.1935 7.06114 15.8356 11.2628 12.9898 13.8084C12.5015 14.2451 11.7517 14.2033 11.315 13.7151C10.8783 13.2268 10.9201 12.477 11.4084 12.0403C13.3227 10.328 13.6412 7.39279 12.3451 5.16877C12.0153 4.60281 12.2067 3.87662 12.7727 3.54678Z" fill="url(#paint5_linear_1018_120)"/>
<g id="Mask group_2">
<mask id="mask1_1018_120" style="mask-type:alpha" maskUnits="userSpaceOnUse" x="11" y="3" width="5" height="12">
<path id="Vector (Stroke)_3" fill-rule="evenodd" clip-rule="evenodd" d="M12.7727 3.54678C13.3386 3.21694 14.0648 3.40835 14.3946 3.97431C16.1935 7.06114 15.8356 11.2628 12.9898 13.8084C12.5015 14.2451 11.7517 14.2033 11.315 13.7151C10.8783 13.2268 10.9201 12.477 11.4084 12.0403C13.3227 10.328 13.6412 7.39279 12.3451 5.16877C12.0153 4.60281 12.2067 3.87662 12.7727 3.54678Z" fill="url(#paint6_linear_1018_120)"/>
</mask>
<g mask="url(#mask1_1018_120)">
<g id="Vector 79" style="mix-blend-mode:multiply">
<path d="M12.3006 8.41487L8.33325 12.5525L14.1486 14.2075L16.6421 8.20905L13.3566 1.06384L13.0633 7.03288L12.3006 8.41487Z" fill="url(#paint7_linear_1018_120)"/>
</g>
</g>
</g>
<path id="repair up right" fill-rule="evenodd" clip-rule="evenodd" d="M13.0111 2.16718L13.3579 2.55093L13.7056 2.93469C13.697 2.9218 13.6879 2.90848 13.6782 2.89477L13.7102 2.92912C13.6958 2.91011 13.6693 2.87694 13.634 2.83432C13.4753 2.62375 13.2225 2.34959 13.0111 2.16718Z" fill="#F97CBF"/>
<path id="Vector (Stroke)_4" fill-rule="evenodd" clip-rule="evenodd" d="M5.9836 8.02797C6.47188 7.59131 7.22168 7.63319 7.65831 8.12149C8.6895 9.27469 10.4612 9.37378 11.6137 8.34236C12.1018 7.90551 12.8516 7.9471 13.2884 8.43523C13.7253 8.92337 13.6837 9.67321 13.1956 10.11C11.0657 12.0161 7.79403 11.832 5.89008 9.70275C5.45344 9.21445 5.49531 8.46462 5.9836 8.02797Z" fill="url(#paint8_linear_1018_120)"/>
<path id="Subtract" fill-rule="evenodd" clip-rule="evenodd" d="M13.6026 2.80346C13.1657 2.31532 12.4159 2.27374 11.9278 2.71058C11.5051 3.08885 11.4173 3.70182 11.685 4.17632C11.8323 4.33545 11.9693 4.51861 12.0864 4.71123C12.8399 5.85139 12.6633 7.40267 11.6141 8.34092C11.1258 8.77757 11.0839 9.5274 11.5206 10.0157C11.9572 10.504 12.707 10.5459 13.1953 10.1092C15.3245 8.2052 15.5086 4.93337 13.6026 2.80346Z" fill="url(#paint9_linear_1018_120)"/>
<path id="Subtract_2" fill-rule="evenodd" clip-rule="evenodd" d="M11.5861 4.07475C9.91299 2.11788 6.40123 1.97258 4.17984 3.95903C3.69155 4.39568 2.94175 4.3538 2.50512 3.86549C2.06849 3.37718 2.11037 2.62736 2.59866 2.19071C5.73656 -0.615327 11.0988 -0.615396 13.6749 2.89377C14.0626 3.42181 13.9488 4.16413 13.4207 4.55178C12.9653 4.88613 12.3505 4.84745 11.9413 4.49169C11.8323 4.33945 11.7121 4.19767 11.5861 4.07475Z" fill="url(#paint10_linear_1018_120)"/>
</g>
<defs>
<linearGradient id="paint0_linear_1018_120" x1="6.43962" y1="8.01675" x2="7.23913" y2="2.87724" gradientUnits="userSpaceOnUse">
<stop stop-color="#F6D25B"/>
<stop offset="1" stop-color="#F8B580"/>
</linearGradient>
<linearGradient id="paint1_linear_1018_120" x1="6.43962" y1="8.01676" x2="7.23913" y2="2.87724" gradientUnits="userSpaceOnUse">
<stop stop-color="#F6D25B"/>
<stop offset="1" stop-color="#F8B580"/>
</linearGradient>
<linearGradient id="paint2_linear_1018_120" x1="10.0227" y1="0.454432" x2="5.41802" y2="5.76994" gradientUnits="userSpaceOnUse">
<stop stop-color="#895200"/>
<stop offset="0.833333" stop-color="#E28800" stop-opacity="0"/>
</linearGradient>
<linearGradient id="paint3_linear_1018_120" x1="2.28762" y1="3.07368" x2="2.85762" y2="11.4149" gradientUnits="userSpaceOnUse">
<stop stop-color="#ED51F2"/>
<stop offset="1" stop-color="#B771F2"/>
</linearGradient>
<linearGradient id="paint4_linear_1018_120" x1="2.27101" y1="11.9" x2="11.1154" y2="12.4326" gradientUnits="userSpaceOnUse">
<stop stop-color="#B971F3"/>
<stop offset="1" stop-color="#8F6FDE"/>
</linearGradient>
<linearGradient id="paint5_linear_1018_120" x1="13.2921" y1="5.26705" x2="11.9221" y2="13.3735" gradientUnits="userSpaceOnUse">
<stop stop-color="#6A4BB2"/>
<stop offset="1" stop-color="#9170E0"/>
</linearGradient>
<linearGradient id="paint6_linear_1018_120" x1="13.2921" y1="4.53326" x2="11.693" y2="13.2704" gradientUnits="userSpaceOnUse">
<stop stop-color="#6A4BB2"/>
<stop offset="1" stop-color="#9170E0"/>
</linearGradient>
<linearGradient id="paint7_linear_1018_120" x1="11.3325" y1="7.88559" x2="13.3939" y2="12.2336" gradientUnits="userSpaceOnUse">
<stop stop-color="#542DA7"/>
<stop offset="0.833333" stop-color="#5F2EAF" stop-opacity="0"/>
</linearGradient>
<linearGradient id="paint8_linear_1018_120" x1="7.06774" y1="8.07382" x2="11.1221" y2="9.21586" gradientUnits="userSpaceOnUse">
<stop stop-color="#F6D25B"/>
<stop offset="1" stop-color="#F9A38F"/>
</linearGradient>
<linearGradient id="paint9_linear_1018_120" x1="12.899" y1="4.90738" x2="13.0694" y2="9.22506" gradientUnits="userSpaceOnUse">
<stop stop-color="#FA80B7"/>
<stop offset="1" stop-color="#F8A48D"/>
</linearGradient>
<linearGradient id="paint10_linear_1018_120" x1="3.69863" y1="2.76302" x2="12.4355" y2="3.21984" gradientUnits="userSpaceOnUse">
<stop stop-color="#E755F3"/>
<stop offset="1" stop-color="#F97FB6"/>
</linearGradient>
</defs>
</svg>
